<svg width="22" height="22" viewBox="0 0 22 22" fill="none" xmlns="http://www.w3.org/2000/svg">
<g clip-path="url(#clip0)">
<path d="M21.8834 16.0599C21.8567 16.0024 21.8319 15.9548 21.8088 15.9167C21.4271 15.2292 20.6977 14.3854 19.621 13.385L19.5983 13.3621L19.5869 13.3509L19.5754 13.3394H19.5638C19.0751 12.8735 18.7657 12.5603 18.6361 12.4C18.399 12.0945 18.3459 11.7853 18.4755 11.472C18.567 11.2353 18.9109 10.7354 19.5064 9.97164C19.8196 9.56687 20.0677 9.24246 20.2509 8.99806C21.572 7.24161 22.1448 6.11922 21.9691 5.63044L21.9009 5.51622C21.855 5.44745 21.7367 5.38455 21.546 5.32718C21.3548 5.26992 21.1105 5.26046 20.8127 5.29861L17.5138 5.3214C17.4604 5.30246 17.3841 5.30423 17.2847 5.32718C17.1854 5.35012 17.1357 5.36164 17.1357 5.36164L17.0783 5.39032L17.0327 5.42479C16.9945 5.44757 16.9525 5.48765 16.9067 5.54495C16.8611 5.60204 16.8229 5.66904 16.7924 5.74538C16.4333 6.66938 16.0249 7.52847 15.5666 8.3226C15.2841 8.79613 15.0246 9.20652 14.7876 9.55399C14.5509 9.90135 14.3524 10.1573 14.1921 10.3213C14.0317 10.4855 13.8868 10.6171 13.7568 10.7165C13.6269 10.8159 13.5277 10.8579 13.4591 10.8425C13.3903 10.8272 13.3255 10.8119 13.2642 10.7967C13.1573 10.7279 13.0714 10.6344 13.0066 10.516C12.9415 10.3977 12.8977 10.2487 12.8748 10.0693C12.852 9.88968 12.8385 9.73522 12.8347 9.60535C12.8311 9.47564 12.8328 9.29217 12.8405 9.05547C12.8484 8.81864 12.852 8.6584 12.852 8.57439C12.852 8.28416 12.8577 7.96918 12.869 7.62937C12.8806 7.28955 12.8899 7.02031 12.8977 6.82196C12.9055 6.6234 12.9091 6.41334 12.9091 6.19188C12.9091 5.97042 12.8957 5.79674 12.869 5.67068C12.8427 5.54478 12.8023 5.42258 12.7491 5.30411C12.6955 5.18575 12.6171 5.0942 12.5142 5.02921C12.4112 4.96429 12.283 4.91278 12.1305 4.8745C11.7258 4.78291 11.2103 4.73336 10.584 4.72566C9.16376 4.71041 8.25115 4.80213 7.84643 5.00068C7.68607 5.08457 7.54095 5.19919 7.41121 5.34419C7.27372 5.51225 7.25454 5.60396 7.3538 5.61905C7.81204 5.68769 8.13645 5.8519 8.32738 6.11152L8.39619 6.24909C8.44971 6.34834 8.50315 6.52407 8.55663 6.77602C8.61003 7.02797 8.64449 7.30669 8.65965 7.612C8.69777 8.16954 8.69777 8.64681 8.65965 9.04383C8.62142 9.44102 8.58531 9.75022 8.55085 9.97168C8.51639 10.1931 8.46487 10.3726 8.39619 10.51C8.32738 10.6475 8.28161 10.7315 8.25866 10.762C8.23575 10.7925 8.21665 10.8117 8.20149 10.8192C8.10223 10.8572 7.999 10.8766 7.89216 10.8766C7.78516 10.8766 7.65542 10.8231 7.50272 10.7161C7.35006 10.6092 7.19163 10.4623 7.02742 10.2751C6.86321 10.088 6.67802 9.82645 6.47176 9.49049C6.26567 9.15452 6.05183 8.75746 5.83037 8.29929L5.64714 7.96702C5.5326 7.75326 5.37613 7.44201 5.17758 7.03355C4.9789 6.62493 4.8033 6.22967 4.65064 5.84785C4.58962 5.68749 4.49795 5.56541 4.37578 5.4814L4.31845 5.44693C4.28034 5.41644 4.21916 5.38406 4.13523 5.34956C4.05117 5.3151 3.96347 5.29039 3.87176 5.27518L0.733229 5.29797C0.412512 5.29797 0.194902 5.37062 0.0803198 5.51574L0.0344629 5.58438C0.0115545 5.62262 0 5.68368 0 5.76773C0 5.85174 0.0229084 5.95485 0.0687653 6.07693C0.526933 7.15375 1.02518 8.19225 1.56351 9.1926C2.10184 10.1929 2.56963 10.9987 2.96662 11.6093C3.36368 12.2203 3.76841 12.7969 4.1808 13.3389C4.59319 13.8812 4.86617 14.2286 4.99973 14.3813C5.13345 14.5342 5.23848 14.6486 5.31483 14.7249L5.60124 14.9998C5.78451 15.1831 6.05363 15.4026 6.40873 15.6584C6.76391 15.9143 7.15713 16.1663 7.58858 16.4146C8.0201 16.6626 8.52212 16.865 9.09491 17.0215C9.66762 17.1782 10.225 17.241 10.7673 17.2107H12.0846C12.3517 17.1876 12.5541 17.1036 12.6917 16.9586L12.7373 16.9012C12.7679 16.8556 12.7966 16.7848 12.8231 16.6895C12.8499 16.5941 12.8632 16.4889 12.8632 16.3746C12.8554 16.0463 12.8804 15.7504 12.9375 15.4869C12.9946 15.2236 13.0597 15.025 13.1324 14.8913C13.2052 14.7577 13.2873 14.645 13.3786 14.5536C13.4702 14.462 13.5354 14.4065 13.5737 14.3874C13.6117 14.3682 13.6421 14.3552 13.665 14.3473C13.8483 14.2863 14.0639 14.3454 14.3124 14.525C14.5606 14.7045 14.7934 14.9261 15.0112 15.1894C15.2288 15.453 15.4903 15.7487 15.7957 16.077C16.1013 16.4055 16.3685 16.6496 16.5975 16.8102L16.8265 16.9476C16.9795 17.0393 17.178 17.1234 17.4224 17.1997C17.6664 17.276 17.8801 17.2951 18.0637 17.257L20.9959 17.2112C21.2859 17.2112 21.5116 17.1632 21.6717 17.0679C21.8321 16.9725 21.9274 16.8673 21.9581 16.7529C21.9888 16.6384 21.9904 16.5085 21.9639 16.3633C21.9368 16.2184 21.91 16.1171 21.8834 16.0599Z" fill="white"/>
</g>
<defs>
<clipPath id="clip0">
<rect width="22" height="22" fill="white"/>
</clipPath>
</defs>
</svg>
